<svg width="18" height="14" viewBox="0 0 18 14" fill="none" xmlns="http://www.w3.org/2000/svg">
<path d="M12.1161 0.735377C12.0009 0.594093 11.8329 0.508913 11.6533 0.500678C11.4737 0.492314 11.2988 0.56167 11.1716 0.691757C11.0445 0.821845 10.9766 1.00057 10.9848 1.18431C10.993 1.36819 11.0762 1.53997 11.2144 1.6577L15.8153 6.36881H0.608106C0.387069 6.38091 0.187662 6.50842 0.0804818 6.70645C-0.0268273 6.90435 -0.0268273 7.14485 0.0804818 7.34286C0.187665 7.54088 0.387063 7.6684 0.608106 7.68036H15.8153L11.2073 12.3862C11.0913 12.5105 11.0266 12.6756 11.0266 12.8474C11.0266 13.0191 11.0913 13.1844 11.2073 13.3085C11.3268 13.4312 11.489 13.5 11.6582 13.5C11.8274 13.5 11.9897 13.4312 12.109 13.3085L17.8081 7.47943V7.47956C17.9307 7.35886 18 7.19236 18 7.01839C18 6.8443 17.9307 6.67779 17.8081 6.55723L12.1161 0.735377Z" fill="white"/>
</svg>
