<svg width="15" height="17" viewBox="0 0 15 17" fill="none" xmlns="http://www.w3.org/2000/svg">
<path d="M6.12716 13.2116C6.54975 12.7817 6.97237 12.3518 7.39495 11.9219C8.21552 11.0871 9.03795 10.2505 9.85852 9.41575C10.4081 8.85671 10.9577 8.29763 11.5053 7.74052C11.5944 7.64992 11.6815 7.55546 11.7592 7.45328C11.9449 7.21231 12.0852 6.96555 12.2008 6.68217C12.2974 6.4412 12.3467 6.19638 12.3808 5.93806C12.504 4.96648 12.0927 3.93123 11.3328 3.32784C10.9406 3.01747 10.4895 2.79192 9.99496 2.71673C9.49846 2.64155 8.98491 2.66854 8.51302 2.85746C8.12263 3.01361 7.77205 3.23144 7.47266 3.5341C7.43286 3.57458 7.39306 3.61507 7.35327 3.65555C6.78095 4.23776 6.20867 4.81992 5.63635 5.40213C4.80633 6.24843 3.97631 7.09279 3.14628 7.93716C2.59105 8.50198 2.03578 9.06684 1.48055 9.63166C1.14323 9.97481 0.840036 10.3507 0.625885 10.7864C0.190029 11.6636 0.0630641 12.6486 0.246859 13.6106C0.423097 14.5302 0.934775 15.4092 1.64729 16.003C2.39772 16.6276 3.31684 16.9862 4.28897 16.9996C5.26869 17.0131 6.20486 16.6661 6.97237 16.055C7.17325 15.895 7.34949 15.7099 7.5276 15.5287L13.353 9.60269C14.4578 8.47878 15.0775 6.91344 14.9922 5.319C14.9429 4.38983 14.6776 3.47605 14.202 2.67988C13.7112 1.86442 13.0119 1.17234 12.1932 0.70777C10.5729 -0.211783 8.5679 -0.233004 6.92122 0.630659C6.402 0.902475 5.93578 1.27261 5.52457 1.69093C5.3218 1.89721 5.12094 2.10154 4.91815 2.30782C4.14499 3.09434 3.3718 3.88089 2.60051 4.66551C1.89935 5.37877 1.20007 6.09014 0.498919 6.8034C0.38711 6.91714 0.275305 7.03088 0.163497 7.14462C-0.0468528 7.3586 -0.0620132 7.75188 0.163497 7.96202C0.390902 8.17407 0.743367 8.19142 0.967012 7.96202C1.18684 7.73839 1.40477 7.51669 1.62461 7.29306C2.13438 6.77448 2.64224 6.25785 3.15201 5.73927L4.87838 3.98307C5.29719 3.55703 5.7179 3.12905 6.13667 2.70305C6.21816 2.62015 6.29965 2.53726 6.38113 2.45436C6.51379 2.31942 6.65213 2.19218 6.79804 2.07267C6.8113 2.0611 6.82836 2.05146 6.84162 2.03797C6.8492 2.03025 6.7336 2.12279 6.78098 2.08616C6.80941 2.06495 6.83783 2.04182 6.86815 2.02062C6.93069 1.97435 6.99322 1.93001 7.05766 1.8876C7.18463 1.80278 7.31538 1.72566 7.44805 1.65241C7.57312 1.58494 7.70009 1.52325 7.83085 1.46734L7.69441 1.52517C8.10563 1.34975 8.5358 1.23022 8.97734 1.16854C8.92617 1.17625 8.8769 1.18204 8.82573 1.18975C9.2654 1.13191 9.70881 1.13191 10.1466 1.18975C10.0954 1.18204 10.0461 1.17625 9.99497 1.16854C10.4365 1.23023 10.8667 1.34782 11.2779 1.52517L11.1415 1.46734C11.3613 1.56373 11.5735 1.67362 11.7782 1.79892C11.8824 1.86254 11.9829 1.93001 12.0814 2.00326C12.1079 2.02254 12.1326 2.04182 12.1572 2.05917C12.1686 2.06688 12.178 2.07652 12.1894 2.08423C12.2368 2.12086 12.1212 2.02833 12.1288 2.03604C12.1724 2.08037 12.2292 2.117 12.2766 2.15941C12.4604 2.31749 12.631 2.48714 12.7901 2.67027C12.8299 2.71461 12.8678 2.76087 12.9057 2.80907C12.9266 2.83413 12.9455 2.85919 12.9664 2.88425C13.0213 2.95365 12.883 2.77051 12.9512 2.86497C13.0232 2.96329 13.0933 3.06546 13.1578 3.16956C13.3056 3.40475 13.4326 3.65345 13.5406 3.90983C13.5216 3.86356 13.5027 3.8173 13.4837 3.77103C13.6562 4.18935 13.7737 4.62696 13.8343 5.07612C13.8267 5.02407 13.821 4.97395 13.8135 4.9219C13.8703 5.36916 13.8703 5.82023 13.8135 6.26556C13.821 6.2135 13.8267 6.16338 13.8343 6.11133C13.7737 6.5605 13.6581 6.9981 13.4837 7.41643C13.5027 7.37016 13.5216 7.32389 13.5406 7.27763C13.4041 7.60149 13.2374 7.91186 13.0365 8.19912C13.01 8.23575 12.9834 8.2743 12.9569 8.31093C12.9455 8.32635 12.9342 8.33985 12.9247 8.35527C13.0308 8.2049 12.9721 8.29358 12.9474 8.32635C12.8906 8.39961 12.8318 8.46901 12.7712 8.53841C12.7086 8.60973 12.6442 8.67914 12.5779 8.74661L12.3069 9.02228C11.8047 9.53313 11.3025 10.044 10.8022 10.5529L8.7556 12.6349C8.18328 13.2171 7.60909 13.8012 7.03678 14.3834C6.88328 14.5396 6.73167 14.6938 6.57819 14.8499C6.55166 14.8769 6.52323 14.9059 6.4967 14.9328C6.42469 15.0061 6.34889 15.0774 6.27119 15.1449C6.23708 15.1757 6.20108 15.2027 6.16507 15.2316C6.31099 15.1083 6.19918 15.2047 6.16128 15.2316C6.08548 15.2876 6.00589 15.3396 5.9263 15.3897C5.78227 15.4784 5.63256 15.5555 5.47717 15.623C5.52265 15.6037 5.56813 15.5844 5.61361 15.5652C5.31609 15.6924 5.00342 15.7791 4.68313 15.8254C4.7343 15.8177 4.78357 15.8119 4.83473 15.8042C4.50689 15.8485 4.17714 15.8485 3.84929 15.8042C3.90046 15.8119 3.94973 15.8177 4.0009 15.8254C3.68063 15.7791 3.36794 15.6924 3.07042 15.5652C3.1159 15.5844 3.16138 15.6037 3.20686 15.623C3.0022 15.5343 2.80701 15.4264 2.62131 15.301C2.57203 15.2683 2.52466 15.2336 2.47728 15.1989C2.37495 15.1218 2.57583 15.2798 2.49434 15.2143C2.47349 15.197 2.45265 15.1796 2.42991 15.1622C2.34463 15.0909 2.26314 15.0138 2.18545 14.9348C2.10775 14.8557 2.03195 14.7728 1.96183 14.6861C1.94478 14.6649 1.92772 14.6437 1.91066 14.6205C1.84623 14.5376 1.99026 14.7304 1.9334 14.6495C1.89929 14.6013 1.86518 14.5531 1.83107 14.5029C1.7041 14.3121 1.59798 14.1078 1.50702 13.8957C1.52597 13.9419 1.54492 13.9882 1.56387 14.0345C1.4388 13.7318 1.35352 13.4138 1.30804 13.0879C1.31562 13.14 1.3213 13.1901 1.32888 13.2422C1.2853 12.9086 1.2853 12.5732 1.32888 12.2397C1.3213 12.2917 1.31562 12.3419 1.30804 12.3939C1.35352 12.0681 1.4388 11.75 1.56387 11.4474C1.54492 11.4936 1.52597 11.5399 1.50702 11.5862C1.57335 11.4281 1.64915 11.2758 1.73632 11.1293C1.77801 11.0599 1.8216 10.9905 1.86897 10.923C1.88982 10.8921 1.91066 10.8632 1.93151 10.8343C1.99215 10.7495 1.85571 10.9326 1.90119 10.8748C1.91824 10.8536 1.9353 10.8305 1.95236 10.8093C2.03195 10.7109 2.11912 10.6165 2.20819 10.5259C2.3162 10.4141 2.42612 10.3042 2.53413 10.1943C3.03063 9.68922 3.52713 9.18414 4.02553 8.67713C4.67931 8.01205 5.33122 7.34888 5.98501 6.6838L7.65642 4.98351C7.82129 4.81579 7.98426 4.65001 8.14914 4.48228C8.18705 4.44372 8.22684 4.40324 8.26474 4.36469C8.27232 4.35697 8.27801 4.35119 8.28559 4.34348C8.31212 4.31649 8.33864 4.2895 8.36707 4.26444C8.3936 4.23938 8.42203 4.21432 8.45045 4.19119C8.46561 4.17769 8.53952 4.11986 8.45803 4.1854C8.37465 4.25095 8.45803 4.18733 8.47698 4.17384C8.61153 4.07745 8.75745 3.99648 8.90906 3.93094L8.77262 3.98877C8.95834 3.90973 9.15352 3.85575 9.35249 3.82683C9.30132 3.83455 9.25205 3.84033 9.20089 3.84804C9.41692 3.81912 9.63484 3.81912 9.84899 3.84804C9.79782 3.84033 9.74855 3.83455 9.69738 3.82683C9.89636 3.85575 10.0896 3.90973 10.2773 3.98877L10.1408 3.93094C10.2716 3.98684 10.3966 4.05431 10.516 4.13528C10.5463 4.15456 10.5748 4.17769 10.6051 4.1989C10.6676 4.24324 10.5615 4.16613 10.5558 4.15842C10.5672 4.17191 10.5861 4.18155 10.5975 4.19312C10.6544 4.24131 10.7093 4.29144 10.7605 4.34348C10.8098 4.39361 10.8552 4.44565 10.9007 4.49963C10.9121 4.51313 10.9235 4.52855 10.9348 4.54204C10.9784 4.5941 10.8571 4.43409 10.895 4.48999C10.9159 4.52084 10.9367 4.54975 10.9576 4.5806C11.0391 4.70398 11.1073 4.83699 11.166 4.97386L11.1092 4.83506C11.1869 5.02398 11.2399 5.22253 11.2684 5.42494C11.2608 5.37289 11.2551 5.32277 11.2475 5.27072C11.2759 5.49049 11.2759 5.71217 11.2475 5.93002C11.2551 5.87797 11.2608 5.82785 11.2684 5.7758C11.2399 5.97821 11.1869 6.17484 11.1092 6.36568L11.166 6.22688C11.1111 6.3599 11.0447 6.48713 10.9651 6.60858C10.9481 6.63557 10.9291 6.66256 10.9121 6.68762C10.8382 6.79172 10.9841 6.59701 10.9272 6.67027C10.878 6.73196 10.8268 6.79172 10.7719 6.84762C10.7548 6.86497 10.7396 6.8804 10.7226 6.89775C10.6221 6.99992 10.5217 7.10209 10.4213 7.20426C10.0044 7.62837 9.58934 8.05057 9.17244 8.47467C8.62476 9.03181 8.07521 9.59085 7.52753 10.148C7.0405 10.6434 6.55159 11.1408 6.06455 11.6362C5.82388 11.8811 5.57751 12.122 5.34063 12.3727C5.33684 12.3765 5.33305 12.3804 5.33116 12.3823C5.12081 12.5963 5.10565 12.9896 5.33116 13.1997C5.55098 13.4233 5.90347 13.4388 6.12708 13.2113L6.12716 13.2116Z" fill="#69707A"/>
</svg>
