<svg width="20" height="19" viewBox="0 0 20 19" fill="none" xmlns="http://www.w3.org/2000/svg">
<path d="M18.4372 3.43557H15.0279V1.60124C15.0279 0.718151 14.3267 -9.15527e-05 13.4646 -9.15527e-05H6.53556C5.67377 -9.15527e-05 4.97261 0.718151 4.97261 1.60124V3.43557H1.56295C0.701166 3.43557 0 4.15381 0 5.03658V17.3986C0 18.2817 0.701166 18.9999 1.56295 18.9999H18.4369C19.2987 18.9999 19.9998 18.2817 19.9998 17.3986L20 5.03698C20.0002 4.15389 19.299 3.43565 18.4372 3.43565L18.4372 3.43557ZM6.05328 1.60124C6.05328 1.32902 6.26956 1.10733 6.53514 1.10733H13.4642C13.7299 1.10733 13.9463 1.32903 13.9463 1.60124V3.43557H6.0532L6.05328 1.60124ZM1.56288 4.54299H18.4368C18.7026 4.54299 18.9187 4.76454 18.9187 5.03658V8.83947L10.0529 11.0344L1.08063 8.83852V5.03686C1.08063 4.76433 1.29691 4.54295 1.56249 4.54295L1.56288 4.54299ZM18.4372 17.893H1.56288C1.29713 17.893 1.08102 17.6713 1.08102 17.3991V9.97695L9.92822 12.1424C9.96955 12.1529 10.0118 12.1577 10.0539 12.1577C10.0964 12.1577 10.1392 12.1526 10.1809 12.1422L18.9188 9.97881V17.3989C18.9188 17.6713 18.7025 17.893 18.4369 17.893L18.4372 17.893Z" fill="#0161F3"/>
</svg>
