<svg width="15" height="21" viewBox="0 0 15 21" fill="none" xmlns="http://www.w3.org/2000/svg">
<path fill-rule="evenodd" clip-rule="evenodd" d="M9.0269 9.19561C8.62201 9.59635 8.07299 9.82125 7.50058 9.8211C6.92831 9.82096 6.3793 9.59564 5.9747 9.19473C5.5701 8.79381 5.34274 8.25005 5.34274 7.6831C5.34274 7.11629 5.57008 6.5725 5.9747 6.17161C6.37931 5.77072 6.92831 5.54539 7.50058 5.54524C8.07299 5.54495 8.62201 5.76998 9.0269 6.17073C9.43195 6.57176 9.65957 7.11581 9.65957 7.68306C9.65957 8.25046 9.43193 8.7945 9.0269 9.19554V9.19561ZM5.08003 5.28673C4.43846 5.92233 4.07794 6.78437 4.07794 7.68321C4.07794 8.58201 4.43845 9.44394 5.08014 10.0795C5.72185 10.7151 6.59219 11.0721 7.49968 11.0721C8.40713 11.0721 9.27736 10.7151 9.91908 10.0795C10.5608 9.44394 10.9213 8.58204 10.9213 7.68321C10.9213 6.78441 10.5609 5.92233 9.91919 5.28673C9.27706 4.65201 8.40683 4.29552 7.49964 4.29552C6.59231 4.29552 5.72212 4.65202 5.07999 5.28673H5.08003ZM7.49998 18.4873L11.9618 12.6166C13.9211 10.0389 14.6989 6.24992 12.0199 3.59615H12.02C10.8184 2.41348 9.1931 1.74965 7.49896 1.74965C5.80496 1.74965 4.17982 2.41348 2.97829 3.59615C0.299416 6.24992 1.07705 10.0385 3.03636 12.6166L7.49998 18.4873ZM14.9936 7.95969C15.0355 6.98967 14.872 6.02163 14.5137 5.11793C14.1554 4.21422 13.61 3.39469 12.9127 2.71222C11.4746 1.29528 9.52867 0.5 7.50043 0.5C5.47199 0.5 3.52598 1.29532 2.08777 2.71222C1.39046 3.39465 0.844985 4.21403 0.486476 5.11778C0.128001 6.02149 -0.0356013 6.98967 0.00646445 7.95969C0.105433 9.92513 0.811452 11.8129 2.02879 13.3684L6.49953 19.2501H4.45783H4.45798C4.23253 19.2501 4.02424 19.3694 3.91161 19.5627C3.79881 19.756 3.79881 19.9941 3.91161 20.1875C4.02426 20.3809 4.23253 20.5 4.45798 20.5H10.5413C10.7668 20.5 10.975 20.3809 11.0877 20.1875C11.2003 19.9942 11.2003 19.756 11.0877 19.5627C10.975 19.3694 10.7667 19.2501 10.5413 19.2501H8.49961L12.9704 13.3684C14.1877 11.813 14.8939 9.92517 14.9936 7.95969H14.9936Z" fill="#0161F3"/>
</svg>
