<svg width="90" height="30" viewBox="0 0 90 30" fill="none" xmlns="http://www.w3.org/2000/svg">
<path d="M4.75163 19.7439V2.01593H0.015625V23.9999H15.6956V19.7439H4.75163ZM26.4181 20.2559C24.4661 20.2559 23.0261 19.0399 22.4821 17.2479H34.4181C34.4181 11.0079 31.3781 7.07193 26.1941 7.07193C21.3621 7.07193 17.6821 10.6879 17.6821 15.6799C17.6821 20.7679 21.5221 24.3839 26.4501 24.3839C28.8821 24.3839 31.7301 23.3599 33.2021 21.8239L30.2261 18.7839C29.3301 19.6479 27.7301 20.2559 26.4181 20.2559ZM26.3861 11.1999C28.2741 11.1999 29.4901 12.2559 29.9381 13.8879H22.5461C23.1541 12.2239 24.6261 11.1999 26.3861 11.1999ZM53.1628 23.9999L47.0829 15.4879L52.8749 7.45593H47.9469L44.6189 12.0639L41.3229 7.45593H36.2669L42.0909 15.5839L36.0109 23.9999H40.9389L44.5549 19.0079L48.1389 23.9999H53.1628ZM58.0399 5.18393C59.4159 5.18393 60.5359 4.03193 60.5359 2.62393C60.5359 1.31193 59.4159 0.12793 58.0399 0.12793C56.5999 0.12793 55.4799 1.31193 55.4799 2.62393C55.4799 4.03193 56.5999 5.18393 58.0399 5.18393ZM55.6719 23.9999H60.3439V7.45593H55.6719V23.9999ZM64.4226 23.9999H69.0946V1.63193H64.4226V23.9999ZM76.9486 29.7599C79.5406 29.7599 81.6526 28.0639 82.9006 24.8319L89.6846 7.45593H84.9166L80.7886 19.0719L76.4366 7.45593H71.6046L78.4846 24.1599L77.9086 25.3759C77.5566 25.9839 76.8526 26.2719 75.9566 26.2719C75.4126 26.2719 74.5806 25.9839 73.7806 25.5359L72.7886 28.7359C73.9086 29.3439 75.5726 29.7599 76.9486 29.7599Z" fill="#0161F3"/>
</svg>
