<svg width="21" height="21" viewBox="0 0 21 21" fill="none" xmlns="http://www.w3.org/2000/svg">
<path d="M16.6582 20.4981C16.8361 20.4837 16.9994 20.3938 17.1062 20.2512C17.2132 20.1088 17.2537 19.9271 17.2173 19.7526L15.8754 13.2323L20.8 8.74233H20.7997C20.9783 8.57789 21.0447 8.32447 20.9695 8.09397C20.8943 7.86324 20.6912 7.69749 20.4499 7.66936L13.8228 6.92766L11.0665 0.863983C10.9655 0.642405 10.744 0.5 10.5 0.5C10.256 0.5 10.0345 0.642411 9.93351 0.863983L7.17722 6.92766L0.55008 7.66936C0.308828 7.69749 0.105701 7.86324 0.0305237 8.09397C-0.0446534 8.32449 0.0216916 8.57791 0.20026 8.74233L5.12485 13.2323L3.78288 19.7526H3.78266C3.7329 19.9914 3.82811 20.2372 4.02563 20.3807C4.22316 20.5244 4.4866 20.5393 4.69899 20.4189L10.5001 17.128L16.3012 20.4189C16.4095 20.4804 16.534 20.5079 16.6583 20.4981H16.6582ZM15.7201 18.6618L10.8063 15.8748H10.8065C10.6161 15.7673 10.3834 15.7673 10.193 15.8748L5.27924 18.6618L6.41569 13.1348H6.41591C6.45963 12.9205 6.38683 12.6987 6.22462 12.5515L2.04685 8.74934L7.66762 8.12276C7.88647 8.09812 8.07581 7.95985 8.16563 7.75921L10.4997 2.62114L12.8339 7.75921C12.9237 7.95985 13.113 8.09812 13.3319 8.12276L18.9526 8.74934L14.7749 12.5515C14.6127 12.6987 14.5399 12.9205 14.5836 13.1348L15.7201 18.6618Z" fill="#0161F3"/>
</svg>
